<svg version="1.0" xmlns="http://www.w3.org/2000/svg"
 width="64" height="64" viewBox="0 0 512 512"
 preserveAspectRatio="xMidYMid meet">

<g transform="translate(148,384) scale(0.05,-0.05)" stroke="none">
  <!-- Верхняя левая грань крышки -->
  <path d="M930 4722 c0 -8 496 -862 508 -874 4 -4 208 193 452 437 l445 445 -703 0 c-386 0 -702 -4 -702 -8z" fill="#81D4FA"/>
  <!-- Верхняя правая грань крышки -->
  <path d="M3230 4285 c244 -244 448 -441 452 -437 12 12 508 866 508 874 0 4 -316 8 -702 8 l-703 0 445 -445z" fill="#4FC3F7"/>
  <!-- Верхняя центральная грань -->
  <path d="M2105 4230 l-450 -450 905 0 905 0 -450 450 c-247 248 -452 450 -455 450 -3 0 -208 -202 -455 -450z" fill="#B3E5FC"/>
  <!-- Левая верхняя боковая -->
  <path d="M380 4223 c-195 -234 -356 -430 -358 -435 -2 -4 273 -8 612 -8 339 0 616 2 616 4 0 10 -503 866 -509 866 -3 0 -166 -192 -361 -427z" fill="#29B6F6"/>
  <!-- Правая верхняя боковая -->
  <path d="M4121 4220 c-138 -238 -251 -433 -251 -436 0 -2 277 -4 615 -4 338 0 615 2 615 5 0 7 -711 859 -720 863 -4 1 -120 -191 -259 -428z" fill="#039BE5"/>
  <!-- Нижняя левая грань -->
  <path d="M100 3458 c56 -73 572 -750 1148 -1505 576 -754 1048 -1370 1049 -1369 2 1 -210 677 -470 1502 l-474 1499 -677 3 -677 2 101 -132z" fill="#0288D1"/>
  <!-- Нижняя центральная грань -->
  <path d="M1553 3583 c2 -5 228 -720 503 -1590 274 -871 501 -1583 504 -1583 3 0 230 712 504 1583 275 870 501 1585 503 1590 2 4 -451 7 -1007 7 -556 0 -1009 -3 -1007 -7z" fill="#0277BD"/>
  <!-- Нижняя правая грань -->
  <path d="M3765 3578 c-18 -50 -944 -2992 -942 -2994 1 -1 473 615 1049 1369 576 755 1092 1432 1148 1505 l101 132 -676 0 c-531 0 -677 -3 -680 -12z" fill="#01579B"/>
</g>
</svg>
